<svg xmlns="http://www.w3.org/2000/svg" xmlns:xlink="http://www.w3.org/1999/xlink" width="42.968" height="37.719" viewBox="0 0 42.968 37.719">
  <defs>
    <linearGradient id="linear-gradient" x1="0.5" x2="0.5" y2="1" gradientUnits="objectBoundingBox">
      <stop offset="0" stop-color="#ff0783"/>
      <stop offset="1" stop-color="#2c2b4f"/>
    </linearGradient>
  </defs>
  <path id="Path_10720" data-name="Path 10720" d="M40.727,21.619V19.911a6.7,6.7,0,0,0-4.891-6.5l-.005-2.816A4.922,4.922,0,0,0,30.987,5.61H30.73L8.058,12.848a4.665,4.665,0,0,0-1.466.338H6.533A6.638,6.638,0,0,0,0,19.911V36.6a6.638,6.638,0,0,0,6.533,6.724H34.195A6.638,6.638,0,0,0,40.727,36.6v-2.22a3.6,3.6,0,0,0,2.241-3.355V24.973A3.6,3.6,0,0,0,40.727,21.619Zm-1.139,9.409a.12.12,0,0,1-.119.122H30.324a.119.119,0,0,1-.118-.122V24.973a.12.12,0,0,1,.118-.121H39.47a.12.12,0,0,1,.119.121ZM31.2,9.1A1.5,1.5,0,0,1,32.452,10.6l0,2.59H18.4Zm3,30.748H6.533A3.2,3.2,0,0,1,3.379,36.6V19.911a3.2,3.2,0,0,1,3.154-3.247H34.195a3.2,3.2,0,0,1,3.154,3.247v1.463H30.324a3.553,3.553,0,0,0-3.5,3.6v6.056a3.553,3.553,0,0,0,3.5,3.6h7.024V36.6A3.2,3.2,0,0,1,34.195,39.851Z" transform="translate(0 -5.61)" fill="url(#linear-gradient)"/>
</svg>
